<?xml version="1.0" standalone="no"?>
<!DOCTYPE svg PUBLIC "-//W3C//DTD SVG 20010904//EN"
 "http://www.w3.org/TR/2001/REC-SVG-20010904/DTD/svg10.dtd">
<svg version="1.0" xmlns="http://www.w3.org/2000/svg"
 width="512.000000pt" height="512.000000pt" viewBox="0 0 512.000000 512.000000"
 preserveAspectRatio="xMidYMid meet">
<metadata>
Created by potrace 1.11, written by Peter Selinger 2001-2013
</metadata>
<g transform="translate(0.000000,512.000000) scale(0.100000,-0.100000)"
fill="#000000" stroke="none">
<path d="M1683 4601 c-227 -36 -438 -163 -556 -336 -70 -102 -103 -179 -144
-340 -12 -46 -14 -2651 -2 -2710 5 -27 11 -61 14 -75 15 -84 82 -230 144 -313
40 -55 124 -136 179 -175 58 -41 175 -95 262 -121 l85 -25 865 -3 c827 -3 869
-2 959 17 353 73 592 318 658 675 14 76 7 306 -11 375 -68 262 -224 457 -441
555 -95 43 -97 44 -160 59 -100 24 -150 27 -509 28 -343 1 -346 2 -346 22 -1
12 -1 379 -2 816 0 707 -2 804 -17 880 -10 47 -21 94 -25 105 -83 221 -185
351 -353 451 -68 40 -181 87 -238 98 -16 4 -41 9 -55 12 -44 10 -253 13 -307
5z"/>
</g>
</svg>
